# xmcd CD database file
#
# Track frame offsets:
#	150
#	17127
#	29420
#	45222
#	62377
#	85520
#	107417
#	122967
#	138875
#	149857
#	164085
#	176237
#	194500
#	217167
#	233172
#	249747
#	261962
#	277582
#
# Disc length: 3910 seconds
#
# Revision: 3
# Processed by: cddbd v1.4PL0 Copyright (c) Steve Scherf et al.
# Submitted via: CDex 1.50beta10
#
DISCID=070f4412
DTITLE=The Guess Who - Greatest Hits
DYEAR=2002
DGENRE=Classic Rock
TTITLE0=These Eyes
TTITLE1=Laughing
TTITLE2=Undun
TTITLE3=No Time
TTITLE4=American Woman
TTITLE5=No Sugar Tonight
TTITLE6=Hand me down world
TTITLE7=Share the Land
TTITLE8=Albert Flasher
TTITLE9=Broken
TTITLE10=Rain Dance
TTITLE11=Sour Suite
TTITLE12=Guns, Guns, Guns
TTITLE13=Running back to Saskatoon
TTITLE14=Follow your daughter home
TTITLE15=Star Baby
TTITLE16=Clap for the Wolfman
TTITLE17=Dancing Fool
EXTD=YEAR: 2002
EXTT0=
EXTT1=
EXTT2=
EXTT3=
EXTT4=
EXTT5=
EXTT6=
EXTT7=
EXTT8=
EXTT9=
EXTT10=
EXTT11=
EXTT12=
EXTT13=
EXTT14=
EXTT15=
EXTT16=
EXTT17=
PLAYORDER=
